<svg xmlns="http://www.w3.org/2000/svg" viewBox="0 0 400 450">
  <defs>
    <!-- 极简渐变背景 -->
    <linearGradient id="bg" x1="0%" y1="0%" x2="0%" y2="100%">
      <stop offset="0%" style="stop-color:#0d1117"/>
      <stop offset="60%" style="stop-color:#161b22"/>
      <stop offset="100%" style="stop-color:#21262d"/>
    </linearGradient>

    <!-- 山石质感 -->
    <linearGradient id="stone" x1="0%" y1="0%" x2="0%" y2="100%">
      <stop offset="0%" style="stop-color:#484f58"/>
      <stop offset="100%" style="stop-color:#30363d"/>
    </linearGradient>

    <!-- 月光 -->
    <radialGradient id="moon-glow" cx="50%" cy="50%" r="50%">
      <stop offset="0%" style="stop-color:#f0f0f0;stop-opacity:1"/>
      <stop offset="40%" style="stop-color:#c9d1d9;stop-opacity:0.3"/>
      <stop offset="100%" style="stop-color:#c9d1d9;stop-opacity:0"/>
    </radialGradient>

    <!-- 灵气微光 -->
    <radialGradient id="spirit" cx="50%" cy="50%" r="50%">
      <stop offset="0%" style="stop-color:#79c0ff;stop-opacity:0.15"/>
      <stop offset="100%" style="stop-color:#79c0ff;stop-opacity:0"/>
    </radialGradient>

    <!-- 薄雾 -->
    <linearGradient id="mist" x1="0%" y1="0%" x2="0%" y2="100%">
      <stop offset="0%" style="stop-color:#fff;stop-opacity:0"/>
      <stop offset="50%" style="stop-color:#fff;stop-opacity:0.08"/>
      <stop offset="100%" style="stop-color:#fff;stop-opacity:0"/>
    </linearGradient>

    <!-- 岛屿投影 -->
    <filter id="island-shadow" x="-20%" y="-20%" width="140%" height="140%">
      <feDropShadow dx="0" dy="15" stdDeviation="20" flood-color="#000" flood-opacity="0.4"/>
    </filter>

    <!-- 柔光 -->
    <filter id="soft-glow" x="-30%" y="-30%" width="160%" height="160%">
      <feGaussianBlur stdDeviation="2" result="blur"/>
      <feMerge>
        <feMergeNode in="blur"/>
        <feMergeNode in="SourceGraphic"/>
      </feMerge>
    </filter>
  </defs>

  <!-- 背景 -->
  <rect width="400" height="450" fill="url(#bg)"/>

  <!-- 月 -->
  <circle cx="320" cy="80" r="35" fill="url(#moon-glow)"/>
  <circle cx="320" cy="80" r="30" fill="#f0f0f0" opacity="0.95"/>

  <!-- 远山剪影 - 极简 -->
  <path d="M0 320 Q60 260 120 290 Q180 250 240 280 Q300 240 360 270 Q390 255 400 260 L400 450 L0 450 Z" fill="#0d1117"/>
  <path d="M0 340 Q80 300 160 330 Q220 295 300 320 Q360 290 400 310 L400 450 L0 450 Z" fill="#161b22"/>

  <!-- 岛屿主体 - 写意山石 -->
  <g filter="url(#island-shadow)">
    <!-- 主岛屿轮廓 -->
    <path d="M100 300
             Q80 280 90 250
             Q110 220 140 210
             L260 210
             Q290 220 310 250
             Q320 280 300 300
             Q250 320 200 325
             Q150 320 100 300 Z"
          fill="url(#stone)"/>

    <!-- 岛屿顶部平台 -->
    <path d="M130 220
             Q120 210 130 195
             Q160 175 200 172
             Q240 175 270 195
             Q280 210 270 220 Z"
          fill="#484f58"/>

    <!-- 山石纹理线条 -->
    <g stroke="#30363d" stroke-width="1" fill="none" opacity="0.5">
      <path d="M120 260 Q140 250 150 270"/>
      <path d="M250 250 Q270 260 280 245"/>
      <path d="M180 290 Q200 280 220 290"/>
    </g>
  </g>

  <!-- 岛上枯木 - 极简线条 -->
  <g stroke="#6e7681" stroke-width="2" fill="none" stroke-linecap="round">
    <path d="M155 200 Q150 170 160 140 Q165 120 155 100"/>
    <path d="M155 140 Q135 130 120 135"/>
    <path d="M155 155 Q175 145 185 150"/>
    <path d="M160 100 Q145 90 140 75"/>
    <path d="M158 105 Q170 95 180 100"/>
  </g>

  <!-- 亭子轮廓 - 现代极简 -->
  <g fill="none" stroke="#8b949e" stroke-width="1.5">
    <!-- 屋顶 -->
    <path d="M200 175 L230 155 L260 175"/>
    <!-- 立柱 -->
    <line x1="210" y1="175" x2="210" y2="195"/>
    <line x1="250" y1="175" x2="250" y2="195"/>
    <!-- 横梁 -->
    <line x1="205" y1="172" x2="255" y2="172"/>
  </g>

  <!-- 古琴 - 极简几何 -->
  <g filter="url(#soft-glow)">
    <path d="M165 205 Q160 195 165 185 Q180 175 200 173 Q220 175 235 185 Q240 195 235 205 Q220 210 200 211 Q180 210 165 205 Z"
          fill="#30363d" stroke="#58a6ff" stroke-width="0.5"/>
    <!-- 琴弦 -->
    <g stroke="#58a6ff" stroke-width="0.3" opacity="0.6">
      <line x1="172" y1="195" x2="228" y2="195"/>
      <line x1="170" y1="199" x2="230" y2="199"/>
      <line x1="168" y1="203" x2="232" y2="203"/>
    </g>
  </g>

  <!-- 灵气光点 - 克制 -->
  <g fill="#79c0ff">
    <circle cx="130" cy="230" r="1" opacity="0.4">
      <animate attributeName="opacity" values="0.2;0.5;0.2" dur="5s" repeatCount="indefinite"/>
    </circle>
    <circle cx="270" cy="215" r="0.8" opacity="0.3">
      <animate attributeName="opacity" values="0.1;0.4;0.1" dur="4s" repeatCount="indefinite" begin="1s"/>
    </circle>
    <circle cx="200" cy="190" r="1.2" opacity="0.5">
      <animate attributeName="opacity" values="0.2;0.6;0.2" dur="3.5s" repeatCount="indefinite" begin="2s"/>
    </circle>
  </g>

  <!-- 云雾层 - 轻薄 -->
  <ellipse cx="200" cy="340" rx="120" ry="25" fill="url(#mist)"/>
  <ellipse cx="140" cy="355" rx="60" ry="15" fill="url(#mist)" opacity="0.6"/>
  <ellipse cx="270" cy="350" rx="50" ry="12" fill="url(#mist)" opacity="0.5"/>

  <!-- 水面倒影暗示 -->
  <rect x="0" y="400" width="400" height="50" fill="url(#bg)" opacity="0.5"/>
  <line x1="50" y1="400" x2="350" y2="400" stroke="#30363d" stroke-width="1"/>
</svg>