<svg xmlns="http://www.w3.org/2000/svg" viewBox="0 0 400 280">
  <defs>
    <linearGradient id="sgN" x1="0%" y1="0%" x2="0%" y2="100%">
      <stop offset="0%" stop-color="#ffe4b8"/>
      <stop offset="100%" stop-color="#ffc070"/>
    </linearGradient>
    <linearGradient id="ggN" x1="0%" y1="0%" x2="0%" y2="100%">
      <stop offset="0%" stop-color="#7ab860"/>
      <stop offset="100%" stop-color="#5a9040"/>
    </linearGradient>
    <linearGradient id="rgN" x1="0%" y1="0%" x2="0%" y2="100%">
      <stop offset="0%" stop-color="#8a6a4a"/>
      <stop offset="100%" stop-color="#4a2a0a"/>
    </linearGradient>
    <linearGradient id="wgN" x1="0%" y1="0%" x2="0%" y2="100%">
      <stop offset="0%" stop-color="#9a7a5a"/>
      <stop offset="100%" stop-color="#7a5a3a"/>
    </linearGradient>
    <filter id="shN" x="-20%" y="-20%" width="140%" height="140%">
      <feDropShadow dx="0" dy="12" stdDeviation="8" flood-color="rgba(0,0,0,0.4)"/>
    </filter>
    <radialGradient id="clN" cx="50%" cy="50%" r="50%">
      <stop offset="0%" stop-color="rgba(255,255,255,0.9)"/>
      <stop offset="100%" stop-color="rgba(255,255,255,0)"/>
    </radialGradient>
  </defs>

  <rect width="400" height="280" fill="none"/>

  <ellipse cx="48" cy="42" rx="42" ry="16" fill="rgba(255,255,255,0.35)"/>
  <ellipse cx="352" cy="52" rx="38" ry="14" fill="rgba(255,255,255,0.3)"/>

  <ellipse cx="200" cy="248" rx="120" ry="13" fill="rgba(0,0,0,0.25)">
    <animate attributeName="ry" values="13;10;13" dur="5s" repeatCount="indefinite"/>
  </ellipse>

  <g filter="url(#shN)">
    <path d="M60,238 L88,152 L312,152 L340,238 L325,253 L75,253 Z" fill="url(#rgN)"/>
    <path d="M88,152 L75,168 L72,253 L102,253 L105,160 Z" fill="#5a3a1a" opacity="0.3"/>
    <path d="M312,152 L325,168 L325,253 L298,253 L295,160 Z" fill="#5a3a1a" opacity="0.3"/>
  </g>

  <path d="M72,152 Q82,142 200,135 Q318,142 328,152 L328,145 Q318,132 200,125 Q82,132 72,145 Z" fill="url(#ggN)"/>

  <!-- 藏书阁 -->
  <g transform="translate(140,65)">
    <rect x="10" y="32" width="11" height="52" fill="#8a7a6a"/>
    <rect x="100" y="32" width="11" height="52" fill="#8a7a6a"/>
    <rect x="6" y="27" width="100" height="6" fill="#7a6a5a"/>
    <rect x="15" y="38" width="85" height="26" fill="#5a4a3a"/>
    <rect x="18" y="41" width="5" height="21" fill="#d84040"/>
    <rect x="25" y="43" width="4" height="19" fill="#4090d0"/>
    <rect x="31" y="40" width="6" height="22" fill="#60b040"/>
    <rect x="39" y="42" width="4" height="20" fill="#d0a040"/>
    <rect x="45" y="41" width="5" height="21" fill="#8040a0"/>
    <rect x="52" y="43" width="4" height="19" fill="#40a0a0"/>
    <rect x="58" y="40" width="5" height="22" fill="#a06040"/>
    <rect x="65" y="42" width="4" height="20" fill="#604080"/>
    <rect x="71" y="41" width="6" height="21" fill="#408080"/>
    <rect x="79" y="43" width="4" height="19" fill="#c06060"/>
    <rect x="15" y="62" width="85" height="26" fill="#5a4a3a"/>
    <rect x="18" y="65" width="4" height="21" fill="#e0c060"/>
    <rect x="24" y="67" width="5" height="19" fill="#60c0a0"/>
    <rect x="31" y="64" width="6" height="22" fill="#c060a0"/>
    <rect x="39" y="66" width="4" height="20" fill="#6090d0"/>
    <rect x="45" y="65" width="5" height="21" fill="#d09050"/>
    <path d="M-8,27 L58,-5 L124,27 Z" fill="url(#wgN)"/>
    <path d="M-12,27 Q0,16 58,-10 Q116,16 128,27" stroke="#baa98a" stroke-width="3" fill="none"/>
  </g>

  <!-- 松树 -->
  <g transform="translate(32,108)">
    <rect x="20" y="52" width="12" height="36" fill="#5a4030"/>
    <path d="M26,52 L10,34 L15,34 L4,18 L14,18 L9,5 L26,20 L43,5 L38,18 L48,18 L37,34 L42,34 Z" fill="#2d6b2d"/>
    <path d="M26,40 L14,28 L18,28 L10,15 L18,15 L16,5 L26,14 L36,5 L34,15 L42,15 L34,28 L38,28 Z" fill="#3d8b3d"/>
  </g>

  <g transform="translate(310,100)">
    <rect x="16" y="58" width="10" height="32" fill="#5a4030"/>
    <path d="M21,56 L10,40 L14,40 L6,26 L14,26 L11,16 L21,28 L31,16 L28,26 L36,26 L28,40 L32,40 Z" fill="#2d6b2d"/>
  </g>

  <!-- 竹简 -->
  <g transform="translate(340,92)" opacity="0.85">
    <rect x="0" y="0" width="26" height="4" fill="#d4c4a4" rx="1"/>
    <rect x="2" y="6" width="26" height="4" fill="#d4c4a4" rx="1"/>
    <rect x="4" y="12" width="26" height="4" fill="#d4c4a4" rx="1"/>
  </g>

  <g opacity="0.8">
    <text x="45" y="78" font-size="15">📜</text>
    <text x="352" y="128" font-size="13">📖</text>
  </g>

  <ellipse cx="78" cy="255" rx="60" ry="16" fill="url(#clN)">
    <animate attributeName="cx" values="78;68;78" dur="8s" repeatCount="indefinite"/>
  </ellipse>
  <ellipse cx="200" cy="262" rx="75" ry="20" fill="url(#clN)">
    <animate attributeName="cx" values="200;190;200" dur="10s" repeatCount="indefinite"/>
  </ellipse>
  <ellipse cx="318" cy="252" rx="50" ry="14" fill="url(#clN)">
    <animate attributeName="cx" values="318;328;318" dur="7s" repeatCount="indefinite"/>
  </ellipse>

  <circle cx="118" cy="115" r="1.5" fill="#ffe8d0" opacity="0.4">
    <animate attributeName="cy" values="115;110;115" dur="3s" repeatCount="indefinite"/>
  </circle>
</svg>